<svg xmlns="http://www.w3.org/2000/svg" width="2225" height="740" fill="none" viewBox="0 0 2225 740"><g fill="currentColor" clip-path="url(#clip0_45_4)"><path d="M1768.79 587.93c-28.89 41.57-73.67 67.63-124.51 71.98-40.86 3.5-81.04-9.48-121.98-6.98-30.75 1.88-68.2 16.31-96.81-1.21-4.1-2.51-6.75-6.3-11.07-7.68-14.26 18.73-37.6 17.94-59.12 16.87-8.83-.44-18.21-2.6-26.97-3.03-86.67-4.32-148.21 33.36-229.27-21.73-6.51-4.42-32.27-22.45-32.28-29.72 5.83-2.1 10.49 4.28 15.33 6.67 34.83 17.18 70.98 21.53 107.35 6 32.26-13.78 53.23-42.66 85.65-56.35 48.89-20.64 111.92-10.62 137.69 39.17 1.26.91 4.08-2.58 5.02-3.48 7.22-6.87 13.22-17.35 20.95-24.03 14.96-12.92 38.19-20.9 57.64-23.36 97.41-12.34 137.82 110.55 245.39 52.4 3.75-2.03 25.16-16.91 26.98-15.51zM531.7 0l3.03 8.51 6.57-.62 2.34 1.69c.55 5.6-.18 11.29.11 16.89 2.69 52.7-1.85 107.97-3 160.92-2.79 128.49-2.94 257.6-4 386-.43 52.29 3.31 109.57.09 161.08-.11 1.77-.21 4.17-1.54 5.47-.9 0-5.1-12.67-5.44-14.57-6.62-36.37-3.27-88.72-4.05-126.95-3.53-173.55-12.8-347.17-14.06-520.94-.15-21.18-2.31-49.73 6.03-69.08 2.57-5.95 8.06-6.87 13.94-8.38zM220.2 435.54c.14.31 1.41.38 1.57 1.08 1.65 7.19-7.51 7.75-11.67 3.99-1.52-1.38-4.13-7.5-4.81-9.69-.51-1.63-2.26-17.27-5.48-15-32.53 62.33-64.31 126.94-112.04 179.19-9.87 10.81-39.24 39.31-52.59 40.74-10.26 1.1-24.64-10.62-29.74-19.08-4.09-6.79-8.41-15.97-2.68-23.1 4.93-6.13 23.1-17.47 30.64-24.16 48.64-43.17 112.48-131.06 145.8-187.68 1.94-3.29 10.05-15.88 8.38-18.72-.27-.45-2.13-.84-2.84-1.6-4.16-4.46-7.32-25.53-9.44-32.6-2.92-9.74-8.54-28.12-17.81-33.19-10.06-5.51-17.02 1.31-22.73-12.27-17.65-41.91-27.34-91.83-44.53-134.47.15-6.59-3.27-19.44 3.29-22.83s32.23-4.72 36.3 4.24c19.63 68.11 48.98 135.3 67.51 203.49 1.01 3.73 1.83 14.79 4.5 16.5 3.83 2.44 9.2.91 12.38 6.62 8.5 15.29-5.61 30.85-9.49 45.42 3.99 11.58 10.38 22.07 15.48 33.13zM27 611.71c3.59 2.21 6.58 3.83 10.7 1.63 11.09-5.91-2.4-20.91-10.94-10.72l.23 9.09zm350.57-484.57c3.08 3.01-1.07 22.99-2.23 27.82-8.11 33.6-23.78 78.82-37.15 110.85-2.18 5.23-8.07 19.11-12.19 22.04-8.82 6.28-18.55 2.01-25.22 12.56-7.17 11.36-10.3 29.78-13.23 42.77L280 366.19c.27 2.65 7.2 12.79 9.15 15.88 43.28 68.37 92.76 139.74 151.13 195.9 4.09 3.94 21.46 17.58 23 20.98 4.72 10.4-6.73 24.64-15.15 29.82-18.92 11.64-35.21-.38-49.54-12.9-46.26-40.41-87.86-114.29-114.94-169.3-4.67-9.48-9.95-19.61-12.92-29.57-7.73-2.08-8.7 10.72-11.37 15.99-2.43 4.79-6.93 10.08-13.04 8.97-5.46-.99-.74-8.89.76-12.25 2.9-6.49 13-20.56 13.75-26.24 1.19-8.99-6.65-19.86-9.33-28.76-4.32-14.36-3.19-21.92 13.33-24.24l.82-1.18c.49-3.53-.29-7.11.36-10.64 1.23-6.59 5.86-18.72 8.06-25.94 18.52-61 42.72-120.22 60.52-181.48 7.06-14.67 30.5-6.97 42.97-4.08zm47.22 472.78v14l12.56-.94.49-12.48-13.06-.58zm920.5-468c33.26 3.74 42.71 35.39 14.82 54.83-6.62 4.61-18.22 8.62-23.66 13.34-1.03.89-2.1.97-1.66 2.83 27.58 7.93 59.19 28.2 61.98 59.52 2.3 25.87-7.82 43.45-31.3 53.67-43.92 19.11-100.81 7.58-147.68 10.81 1.75-5.76 9.62-6.32 13.01-11.48 5.19-7.91.9-24.57.9-34.01 0-40.84 7.6-84.09 1.98-124.9-2.06-14.96-7.64-14.46-17.63-22.32-.81-.64-1.83.04-1.27-2.29zm-11.92 47.57c1.33-1.76 2.51-2.94 3.39-5.12 11.77-29.16-29.71-31.06-48.19-28.18-6.96 1.08-18.83 2.86-19.79 11.21-1.26 10.88-.75 32.74-.02 44.06.16 2.54 1.09 4.92 1.05 7.47 18.69-5.7 51.44-13.32 63.57-29.43zm8 42.88c-26.29-23.95-43.11-6.97-71.14 1.49.06 6.09-1.24 12.67-1.48 18.52-.63 15.4-1.68 41.41 0 56.07.61 5.31 2.43 11.51 7.96 13.04 12.78 3.52 45.15.39 57.76-4.38 35.92-13.58 31.69-62.15 6.89-84.74zm234.42-90.45c2.66 2.31-12.26 8.41-13.34 9.16-1.57 1.11-2.37 1.96-3.5 3.5-7.92 10.79-4.52 44.66-5.12 58.88-.99 23.57-7.63 55.62-1.93 77.84 11.77 45.8 96.02 36.99 101.82-3.94 4.34-30.64-2.29-64.48-4.93-94.95-.7-8.05.37-30.73-2.59-36.41s-12.08-6.8-17.31-9.7c-1.29-.72-4.67-2.42-4.12-4.38h64c-1.34 4.74-9.41 6.1-12.66 9.34-5.11 5.09-6.01 15.28-6.14 22.16-.77 42.11 19.55 107.93-10.23 141.97-32.08 36.67-135.68 34.37-144.91-23.03-4.88-30.32 5.24-74.23 6.93-105.95.54-10.1.76-29.47-8.06-35.92-3.66-2.67-10.09-2.67-8.93-8.57zm-527 0c-2.09 5.05-7.23 10.49-6.96 16.42.35 7.48 9.36 31.02 12.29 39.75 12.56 37.36 28.05 78.88 44.3 114.7 1.87 4.11 4.28 10.75 6.94 14.06 3.24 4.04 9.25 5.03 10.42 10.08h-69.5l-1.01-2c7-6.05 14.71-12.24 14.59-22.5-.4-36.41-42.1-62.64-75.58-62.56-10.83.03-6.84 2.29-8.99 9.08-4.61 14.59-24.47 49.24-18.98 62.94.32.81 3.63 4.71 4.52 5.48 3.63 3.14 10.79 4.52 11.94 9.56h-60c.02-5.29 6.96-7.56 10.53-10.97 13.09-12.5 32.53-66.72 39.95-86.05 5.75-14.98 11.78-30.88 16.98-46.02 2.84-8.27 8.87-22.94 10.31-30.69 1.07-5.71.55-10.71-3.77-14.77-2.42-2.27-6.91-2.73-7-6.5h69zm-12 107.99-27.21-75.28-3.27-1.71-22.07 59.02zm-242-62c-2.6.6-1.75-.78-2.57-1.89-21.02-28.17-48.67-40.18-83.94-28.12-83.92 28.69-44.49 174.1 49 166 10.21-.89 29.98-7.54 38.05-13.96 7.07-5.63 16.1-20.79 22.58-25.37 1.22-.87 2.17-1.99 3.89-1.65l-19.68 54.07c-2.04 2.22-18.79 3.69-22.83 3.91-67.22 3.68-148.07-18.88-154.48-97.5-5.65-69.22 41.13-107.14 107.5-106.56 15.58.14 29.25 6.74 45.75 3.83 2.4-.42 4.89-1.88 7.27-2.52 3.63 2.38 1.88 6.9 2.54 10.18 2.66 13.2 5.69 26.3 6.92 39.57zm1336-45.99c-3.64 5.75-11.88 7.27-15.41 13.09-4.52 7.47-4.1 24.52-4.6 33.4-1.56 27.38-2.05 56.52-1.03 84.05.36 9.82 1.09 30.74 3.53 39.47 1.68 6.02 5.2 8.47 11.24 9.76 18.83 4 54.77-6.9 70.59-17.95 13.08-9.13 18.14-24.03 28.18-35.8 1.5 1.07 1.55 1.64 1.45 3.39-.13 2.56-4.2 15.22-5.28 18.76-3.13 10.23-11.79 36.83-17.29 44.71-5.18 7.42-6.46 2.12-7.88 2.12h-134.5c.08-6.19 10.24-7.08 13.65-11.35 4.23-5.29 4.78-23.26 4.33-30.14-1.21-18.88-2.39-35.8-2.02-55.05.5-25.49 4.6-54.74-.03-79.91-2.17-11.81-10.93-10.39-17.67-16.27-.7-.61-1.88.05-1.27-2.29h74zm-261 0c2.36 2.08-11.07 8.03-12.34 9.16-2.91 2.58-4.72 7.68-5.54 11.46-6 27.76-4.63 83.37-3.16 112.93.43 8.58 2.38 32.39 5.99 39.01 3.35 6.14 9.01 7.84 15.68 8.32 20.59 1.47 49.66-7.78 65.6-20.9 10.23-8.42 16.8-23.94 26.76-32.96-5.04 23.68-13.27 47.31-24.19 68.79l-1.29.32-137.49-2.61c9.18-6.98 14.42-11.25 16.71-23.27 4.35-22.83 2.73-54.33 2.23-77.69-.48-22.65.91-52.08-4.21-73.79-3.49-14.81-12.45-9.4-18.08-15.71-.99-1.11-.71-1.68-.66-3.05h74zm-343 274h27c-.94 3.08-5.04 2.63-6.47 5.03-1.02 1.71-2.32 10.05-2.52 12.48-1.59 19.64 2.24 39.88 2.98 59.48h-22.5l-1.48-1.49c.39-1.48 4.98-6.58 4.98-7.01v-39.5h-39c1.97 11.19-3.93 28.77.71 38.75.58 1.24 1.81 1.25 2.26 1.99.7 1.16 3.61 7.26.53 7.26h-21c-4.54 0 3.2-13.78 3.53-16.47 1.29-10.55 2.41-39.79.69-49.75-.73-4.27-6.45-13.81-.53-13.56 5.48.23 10.79.93 16.37.84 1.56-.03 6.18-1.93 5.43 1.41-.1.43-2.51 2.43-3.2 3.82-2.72 5.48-3.75 10.61-2.36 16.78 6.63 1.76 34.12 5.56 38.04.91 4.56-5.43-.88-15.66-3.47-20.97zm115.42 16.58c30.79 36.59-6.34 78.86-48.63 66.13-27.21-8.19-37.37-36.9-24.18-61.61 13.96-26.15 54.76-25.98 72.81-4.52m-40.64-7.3c-30.64 3.96-26.54 60.98.78 68.66 43.75 12.3 49.21-75.12-.78-68.66m212.02 21.93 1.19 20.79c-4.65-.05-4.16-5.42-5.57-7.92-6.64-11.79-42.69-20.99-34.67-1.33 3.59 8.79 33.85 16.14 41.28 28.67 4.86 8.2 5.47 15.79 1.46 24.58-10.51 23.03-49.78 9.24-68.04 4.04l.55-25.04c1.68-.12 2.27-.35 3.43 1.06 2.33 2.82 3.92 9.49 6.18 12.82 7.6 11.21 29.97 19.47 40.38 7.61 15.66-17.83-17.89-28.11-28.91-35.07-9.88-6.24-16.99-12.31-11.81-24.64 9.01-21.45 38.26-10.71 54.53-5.57m84.2 37.78c-5.2-.34-4.96-6.84-7.31-9.68-4.51-5.45-25.6-12.68-31.39-8.01-3.09 2.49-2.54 11.69-3.3 15.7 9.22.75 17.91 3.98 27 0l-2 21-3.48-1.01c-.73-8.83-6.96-12.02-15.12-12.87-6.49-.67-7.8-1.01-9.54 5.24-1.99 7.12-5.43 25.08-3.41 31.7 2.87 9.37 23.03 7.76 30.26 5.15 6.92-2.49 10.13-9.93 17.29-10.2l-12.02 22.53-59.97-15.06 5.2-6.78c7.34-21.22 14.18-45.12 11.79-67.71l55.39 10.12c5.9 3.35.97 14.5.61 19.88m-201-56.98c-5.55 7.56-8.64 16.67-10.73 25.76-4.35 18.94-10.09 51.8 18.87 50.64 12.07-.48 19.2-7.6 21.76-19 3.45-15.33 3.27-32.62 2.93-48.24-.78-1.26-6.75-.94-5.83-4.16l21.99 2c-1.69 4.36-4.78 3.57-6.52 8.97-6.63 20.53 2.48 64.94-30.09 67.93-7.03.65-23.93-3.21-30.42-6.37-25.24-12.29.08-53.86-4.4-72.6-.76-3.18-3.16-4.05-3.56-6.93l25.99 2.01zM982.8 491.91c30.53-2.37 43.11 34.27 12.98 47.49-5.17 2.26-42.14 14.11-44.86 12.4-2.05-15.94-4.9-31.52-9.63-46.87-1.66-5.39-6.73-21.01-9.83-24.67-1.27-1.5-5.12-2.34-4.65-5.34 17.63-2.8 41.44-15.38 59.27-11.78 8.1 1.64 8.95 9.84 5.78 16.32-.98 1.99-9.9 11.68-9.04 12.45zm-7.35-6.33c12.53-16.1-17.09-18.81-25.16-9.72l3.72 17.33 2.48 2.6c2.5.61 17.14-7.88 18.96-10.21m-11.36 51.04c5.04 6.64 19.49 1.26 25.02-2.87 19.44-14.52 2.38-37.83-17.85-36.87-9.8.46-15.74 3.89-14.39 14.47.52 4.06 2.89 13.77 4.16 17.83.35 1.11 2.67 6.94 3.06 7.45zm430.82-99.59 27.88 42.87-20.04 2.61c-2.55-10.84-5.32-20.74-12.53-29.53-5.42-6.6-16.49-12.63-22.44-3.58-.87 12.01-1.35 22.37 4 33.5l-22.99 2c4.18-16.52 6.1-33.43 5.04-50.54-.61-9.86-2.16-20.31-8.04-28.45 14.61 1.97 52.72-9.69 63.01 2.48 8.85 10.47-3.79 24.7-13.89 28.62zm-27.12 3.89c25.1-3.68 44.51-39.54 1.98-28.52-.46.35-1.98 7.37-1.98 8.02zm-134.41.64c-.4.5-1.53.32-1.57.39-1.81 2.92 5.86 3.25 7.54 3.92 26.6 10.53 24.41 41.32-3.7 48.41-5.09 1.28-43.06 6.33-44.85 4.64.01-4.13 3.87-6.18 4.06-10.51.13-3.09-1.57-6.91-1.94-10.11-1.53-13.07-3.12-33.45-7.39-45.61-.85-2.41-5.29-7.1-4.72-9.23.6-1.15 1.44-1.22 2.55-1.48 10.76-2.56 43.77-7.21 53.48-4.58 12.63 3.42 1.1 18.5-3.44 24.17zm-31.58 7.36c23.56-4.76 42.97-30.84 1.99-22.51zm16.65-.62c-10.58.3-14.15 4.06-13.64 14.12.29 5.63 2.03 18.25 3.2 23.79s10.31 4.14 15.02 3.46c30.94-4.5 21.28-42.11-4.58-41.36zm-35.65 53.61-19.02 1.52c-2.6-3.88-3.47-8.58-5.97-13.02-3.79-6.73-14.97-20.16-22.77-21.27-8.5-1.22-11.35 3.31-11.28 11.24.05 5.28 3.33 19.38 6.57 23.51 1.56 1.99 4.74 2.28 4.46 5.02l-25 4.01 1.07-22.52c-1.17-13.88-3.29-27.65-8.38-40.67-.87-2.22-7.75-13.77-6.68-14.81 14.87 2.36 48.94-14.4 60.97-5.48 7.85 5.83 4.6 19.47-1.44 25.51-2.66 2.65-9.46 3.42-8.44 7.29.44 1.65 14.84 10.99 17.44 13.64s16.29 19.83 17.53 22.47c.57 1.21 1.28 2.04.93 3.56zm-45.59-43.57c4.77-4.02 7.98-7.11 8.58-13.92.45-5.09.89-6.56-3.98-8.02-23.85-7.14-28.84 9.74-21.05 29.11 6.41-.04 11.76-3.21 16.45-7.17m149.58-24.42 26.96-3.96c1.02 3.32.75 6.85 1.27 10.23.37 2.4 4.54 8.77-1.53 6.53-2.79-1.03-4.34-5.44-8.43-6.58-2.01-.56-14.14-1.72-15.16-.1 1.04 12.66-6.91 42.62 13.22 42.5 9.53-.06 17.36-3.76 23.61-10.41 1.53-1.62 7.56-10.51 8.25-10.97s2.78-.63 2.82.28c-2.07 6.7-1.89 17.61-4.21 23.79-.29.78-.52 1.38-1.44 1.56l-60.38 2.64c-2.62-1.73.99-3.46 1.79-5.24 3.4-7.63-.11-48.48-2.63-57.92-.82-3.08-6.2-13.57-5.06-15.26l55.74-2.44c6.43 1.65 6.78 14.73 7.16 20.35-4.48-2.07-7.49-6.3-11.67-8.82-8.89-5.35-20.31-6.51-30.32-4.18v18zm-205.6 50.61c4.97 7.44 11.56 14.79 15.96 22.54.7 1.23 3.38 5.82 2.64 6.85l-21.99 4.01c4.12-14.3-5.97-24.21-19.61-25.89-4.14-.51-17.2-1.3-19.17 2.61-4.02 7.98-2.72 25.56 2.76 32.78.03 1.8-17.42 4.71-19.98 4.49 5.59-9.11 7.81-20.25 9.77-30.72 1.67-8.96 5.36-28.44 5.31-36.77-.02-4.01-4.92-16.16-2.14-18.07 1.23-.84 18.34-2.23 20.63-.51 9.03 12.61 17.23 25.79 25.83 38.68zm-39.4-25.61v24l21.01 1.49c-.05-4.53-17.44-29.19-21.01-25.49"/></g><defs><clipPath id="clip0_45_4"><path fill="#fff" d="M0 0h2224.77v739.93H0z"/></clipPath></defs></svg>