<svg width="500" height="500" viewBox="0 0 500 500" fill="none" xmlns="http://www.w3.org/2000/svg">
<path d="M237.091 304.842C237.242 305.144 238.61 305.212 238.782 305.894C240.558 312.896 230.696 313.442 226.217 309.78C224.58 308.436 221.77 302.475 221.038 300.342C220.489 298.755 218.605 283.522 215.138 285.733C180.113 346.438 145.896 409.364 94.5054 460.252C83.8785 470.78 52.2562 498.537 37.8824 499.93C26.8355 501.001 11.3527 489.587 5.86163 481.347C1.45797 474.734 -3.19333 465.793 2.9761 458.849C8.28418 452.879 27.8476 441.835 35.9659 435.319C88.336 393.275 157.072 307.676 192.947 252.532C195.036 249.328 203.768 237.066 201.97 234.3C201.679 233.862 199.676 233.482 198.912 232.742C194.433 228.398 191.031 207.877 188.748 200.992C185.604 191.505 179.553 173.605 169.572 168.667C158.741 163.3 151.247 169.943 145.099 156.717C126.095 115.899 115.662 67.2807 97.1541 25.7523C97.3156 19.3341 93.6333 6.81908 100.696 3.51746C107.759 0.215833 135.398 -1.0795 139.78 7.64692C160.916 73.9813 192.516 139.42 212.468 205.832C213.555 209.465 214.438 220.236 217.313 221.902C221.436 224.278 227.218 222.788 230.642 228.349C239.794 243.241 224.602 258.395 220.424 272.585C224.72 283.863 231.6 294.08 237.091 304.851V304.842ZM29.075 476.419C32.9404 478.571 36.1597 480.149 40.5956 478.007C52.5361 472.251 38.0116 457.642 28.8166 467.566L29.0643 476.419H29.075Z" fill="black"/>
<path d="M406.53 4.48167C409.846 7.4132 405.378 26.8723 404.129 31.5764C395.397 64.3005 378.525 108.342 364.13 139.537C361.783 144.63 355.441 158.148 351.005 161.002C341.509 167.118 331.033 162.96 323.851 173.235C316.131 184.298 312.761 202.238 309.606 214.89L301.477 237.3C301.768 239.881 309.23 249.756 311.329 252.766C357.928 319.353 411.203 388.863 474.049 443.559C478.453 447.396 497.155 460.68 498.813 463.992C503.895 474.121 491.567 487.989 482.501 493.034C462.13 504.371 444.591 492.664 429.162 480.471C379.354 441.114 334.564 369.16 305.407 315.584C300.379 306.351 294.694 296.485 291.496 286.785C283.174 284.759 282.129 297.226 279.255 302.358C276.638 307.023 271.793 312.175 265.215 311.094C259.336 310.13 264.418 302.436 266.033 299.164C269.155 292.843 280.03 279.14 280.837 273.608C282.119 264.852 273.677 254.266 270.792 245.598C266.14 231.612 267.357 224.249 285.144 221.99L286.027 220.84C286.554 217.402 285.715 213.916 286.415 210.478C287.739 204.059 292.724 192.246 295.093 185.214C315.033 125.804 341.089 68.128 360.254 8.46504C367.855 -5.82252 393.093 1.67675 406.519 4.49141L406.53 4.48167ZM457.371 464.936V478.571L470.894 477.656L471.422 465.501L457.36 464.936H457.371Z" fill="black"/>
</svg>
